<?xml version="1.0" encoding="UTF-8" standalone="no"?>
<!-- Created with Inkscape (http://www.inkscape.org/) -->

<svg
   xmlns:dc="http://purl.org/dc/elements/1.1/"
   xmlns:cc="http://creativecommons.org/ns#"
   xmlns:rdf="http://www.w3.org/1999/02/22-rdf-syntax-ns#"
   xmlns:svg="http://www.w3.org/2000/svg"
   xmlns="http://www.w3.org/2000/svg"
   xmlns:sodipodi="http://sodipodi.sourceforge.net/DTD/sodipodi-0.dtd"
   xmlns:inkscape="http://www.inkscape.org/namespaces/inkscape"
   width="24"
   height="24"
   viewBox="0 0 24 24"
   version="1.1"
   id="svg8"
   inkscape:version="0.92.3 (2405546, 2018-03-11)"
   sodipodi:docname="Barbarian.svg">
  <defs
     id="defs2" />
  <sodipodi:namedview
     id="base"
     pagecolor="#ffffff"
     bordercolor="#666666"
     borderopacity="1.0"
     inkscape:pageopacity="0.0"
     inkscape:pageshadow="2"
     inkscape:zoom="22.4"
     inkscape:cx="13.202871"
     inkscape:cy="14.170596"
     inkscape:document-units="px"
     inkscape:current-layer="layer1"
     showgrid="false"
     units="px"
     inkscape:window-width="1920"
     inkscape:window-height="1017"
     inkscape:window-x="1912"
     inkscape:window-y="-8"
     inkscape:window-maximized="1"
     scale-x="1" />
  <metadata
     id="metadata5">
    <rdf:RDF>
      <cc:Work
         rdf:about="">
        <dc:format>image/svg+xml</dc:format>
        <dc:type
           rdf:resource="http://purl.org/dc/dcmitype/StillImage" />
        <dc:title></dc:title>
      </cc:Work>
    </rdf:RDF>
  </metadata>
  <g
     inkscape:label="Layer 1"
     inkscape:groupmode="layer"
     id="layer1"
     transform="translate(0,-290.65)">
    <g
       id="g3729"
       transform="matrix(0.00265247,0,0,-0.00265252,4.188265,315.79589)"
       style="fill:#000000;stroke:none">
      <path
         id="path3727"
         d="M 1388,9343 C 1254,9194 947,8794 907,8714 l -25,-49 104,-150 c 102,-146 104,-151 104,-205 v -56 l -187,-18 c -104,-10 -195,-20 -204,-22 -13,-4 -33,-70 -83,-272 -60,-247 -67,-286 -91,-524 l -25,-257 26,-298 26,-298 69,-245 c 38,-135 72,-251 74,-258 3,-8 55,13 165,68 136,68 167,80 210,80 h 50 v -52 c 0,-47 -11,-71 -120,-274 -66,-122 -120,-226 -120,-230 0,-5 40,-80 89,-167 84,-150 100,-172 312,-417 123,-142 225,-257 227,-255 1,1 -2,22 -7,46 -15,65 -13,201 8,414 l 19,190 64,168 c 62,160 69,174 174,317 l 109,149 81,25 c 71,23 100,26 217,26 h 135 l 28,55 29,55 h 56 55 l 76,-137 c 42,-76 78,-154 82,-173 4,-22 30,-65 71,-116 l 64,-80 -9,-570 c -5,-313 -11,-647 -13,-743 l -4,-175 -53,-46 -54,-47 25,-34 c 43,-60 47,-219 54,-1734 3,-759 7,-1479 9,-1600 3,-213 4,-220 24,-223 13,-2 35,-28 61,-72 l 41,-69 54,-6 c 30,-4 77,-4 105,0 51,7 52,8 92,76 27,44 48,69 59,69 16,0 19,15 24,143 3,78 8,801 11,1607 7,1601 11,1749 54,1809 l 25,34 -54,47 -53,46 -4,175 c -2,96 -8,430 -13,743 l -9,570 64,80 c 41,51 67,94 71,116 4,19 40,97 82,173 l 76,137 h 55 56 l 29,-55 28,-55 h 135 c 117,0 146,-3 217,-26 l 81,-26 109,-148 c 105,-143 112,-156 174,-317 l 64,-168 19,-195 c 21,-219 23,-344 8,-409 -5,-24 -8,-45 -7,-46 2,-2 31,29 65,68 34,40 134,155 223,257 l 161,185 158,285 158,285 96,335 95,335 19,217 c 17,196 17,218 3,222 -8,3 -117,24 -242,47 l -228,43 v 52 c 0,48 2,53 28,62 15,5 119,42 232,82 113,39 208,75 212,78 4,4 -2,84 -12,177 -15,137 -33,229 -95,480 l -77,310 -110,215 c -101,195 -126,235 -276,435 -137,182 -402,495 -419,495 -3,0 -2,-48 2,-107 6,-87 2,-152 -20,-333 -26,-215 -30,-231 -77,-356 l -50,-132 -134,-103 c -124,-96 -144,-108 -262,-152 -70,-26 -158,-53 -197,-58 -38,-6 -73,-16 -76,-21 -4,-6 -15,-48 -25,-94 -11,-55 -22,-85 -33,-89 -9,-4 -55,-9 -102,-12 l -86,-6 -7,74 c -3,41 -9,111 -12,156 l -7,82 -34,12 c -25,8 -52,35 -108,109 -72,94 -75,103 -103,212 l -28,113 h -79 -79 l -28,-113 c -28,-109 -31,-118 -103,-212 -56,-74 -83,-101 -108,-109 l -34,-12 -7,-82 c -3,-45 -9,-115 -12,-156 l -7,-74 -86,6 c -47,3 -93,8 -102,12 -10,4 -21,29 -28,63 -30,138 -25,130 -89,137 -31,4 -120,29 -197,56 -136,49 -144,53 -277,156 l -137,105 -49,132 c -47,125 -51,142 -77,355 -22,182 -26,244 -20,332 4,60 5,109 2,109 -2,0 -60,-62 -129,-137 z"
         inkscape:connector-curvature="0" />
    </g>
  </g>
</svg>
