<?xml version="1.0" encoding="UTF-8" standalone="no"?>
<svg
   xmlns:dc="http://purl.org/dc/elements/1.1/"
   xmlns:cc="http://creativecommons.org/ns#"
   xmlns:rdf="http://www.w3.org/1999/02/22-rdf-syntax-ns#"
   xmlns:svg="http://www.w3.org/2000/svg"
   xmlns="http://www.w3.org/2000/svg"
   xmlns:sodipodi="http://sodipodi.sourceforge.net/DTD/sodipodi-0.dtd"
   xmlns:inkscape="http://www.inkscape.org/namespaces/inkscape"
   version="1.0"
   width="24"
   height="24"
   viewBox="0 0 24 24"
   preserveAspectRatio="xMidYMid meet"
   id="svg8"
   sodipodi:docname="Bard.svg"
   inkscape:version="0.92.3 (2405546, 2018-03-11)">
  <defs
     id="defs12" />
  <sodipodi:namedview
     pagecolor="#ffffff"
     bordercolor="#666666"
     borderopacity="1"
     objecttolerance="10"
     gridtolerance="10"
     guidetolerance="10"
     inkscape:pageopacity="0"
     inkscape:pageshadow="2"
     inkscape:window-width="1920"
     inkscape:window-height="1017"
     id="namedview10"
     showgrid="false"
     units="px"
     inkscape:zoom="14.015933"
     inkscape:cx="35.897748"
     inkscape:cy="23.697917"
     inkscape:window-x="1912"
     inkscape:window-y="-8"
     inkscape:window-maximized="1"
     inkscape:current-layer="svg8" />
  <metadata
     id="metadata2">
Created by potrace 1.15, written by Peter Selinger 2001-2017
<rdf:RDF>
  <cc:Work
     rdf:about="">
    <dc:format>image/svg+xml</dc:format>
    <dc:type
       rdf:resource="http://purl.org/dc/dcmitype/StillImage" />
    <dc:title></dc:title>
  </cc:Work>
</rdf:RDF>
</metadata>
  <g
     transform="matrix(0.00235532,0,0,-0.00235525,7.1480336,25.530912)"
     id="g6"
     style="fill:#000000;stroke:none">
    <path
       d="m 1940,10789 c -110,-48 -119,-55 -206,-144 l -91,-93 -6,-213 c -4,-118 -12,-356 -18,-529 l -11,-316 116,-193 117,-194 -69,-1986 -69,-1986 -292,-453 -293,-452 -202,-558 -203,-557 -73,-418 -73,-418 42,-362 43,-362 181,-346 181,-346 141,-66 140,-66 247,-40 c 245,-41 249,-41 515,-41 266,0 270,0 518,40 l 250,41 140,66 141,66 181,346 181,346 43,362 42,363 -73,417 -73,418 -203,558 -203,557 -292,452 -292,453 -13,375 c -7,206 -39,1100 -69,1986 l -56,1611 117,194 116,194 -6,145 c -3,80 -11,318 -17,529 l -13,383 -90,94 c -87,89 -96,95 -207,143 -65,28 -119,51 -120,51 -2,0 -56,-23 -119,-51 z m 299,-7224 c 194,-46 360,-212 406,-407 19,-82 19,-274 0,-356 -46,-195 -212,-361 -406,-407 -84,-19 -274,-19 -358,0 -194,46 -360,212 -406,407 -19,82 -19,274 0,356 46,192 211,360 401,406 80,19 282,20 363,1 z m -959,-342 c 0,-68 -46,-171 -79,-175 -56,-7 -145,-251 -125,-343 23,-109 135,-246 352,-430 98,-83 135,-127 168,-198 35,-77 44,-141 44,-306 0,-138 -2,-150 -26,-199 -37,-74 -111,-137 -191,-162 -51,-16 -93,-20 -195,-20 -148,0 -169,7 -217,72 -28,38 -31,48 -31,119 0,72 2,79 26,98 23,18 41,21 118,21 104,0 116,-6 116,-61 0,-56 45,-66 116,-24 54,32 87,96 92,182 4,57 1,68 -33,130 -45,82 -98,145 -264,311 -70,70 -135,145 -146,167 -35,75 -46,148 -52,341 -5,175 -4,197 15,260 26,84 64,144 136,213 54,50 56,51 115,51 h 61 z m 1753,-3 c 71,-65 112,-128 137,-208 25,-82 28,-334 5,-466 -23,-131 -43,-165 -186,-308 -166,-166 -219,-229 -264,-311 -34,-62 -37,-73 -33,-130 5,-86 38,-150 92,-182 71,-42 116,-32 116,24 0,55 12,61 116,61 77,0 95,-3 118,-21 24,-19 26,-26 26,-98 0,-71 -3,-81 -31,-119 -48,-65 -69,-72 -217,-72 -102,0 -144,4 -195,20 -80,25 -154,88 -191,162 -24,49 -26,61 -26,199 0,165 9,229 44,306 33,71 70,115 168,198 140,120 179,158 240,234 62,77 101,146 112,196 20,92 -69,336 -125,343 -33,4 -79,107 -79,175 v 47 h 59 c 57,0 61,-2 114,-50 z M 2670,1070 V 900 h -615 -615 v 170 170 h 615 615 z"
       id="path4"
       inkscape:connector-curvature="0" />
  </g>
</svg>
