<?xml version="1.0" encoding="UTF-8" standalone="no"?>
<svg
   xmlns:dc="http://purl.org/dc/elements/1.1/"
   xmlns:cc="http://creativecommons.org/ns#"
   xmlns:rdf="http://www.w3.org/1999/02/22-rdf-syntax-ns#"
   xmlns:svg="http://www.w3.org/2000/svg"
   xmlns="http://www.w3.org/2000/svg"
   xmlns:sodipodi="http://sodipodi.sourceforge.net/DTD/sodipodi-0.dtd"
   xmlns:inkscape="http://www.inkscape.org/namespaces/inkscape"
   version="1.0"
   width="24"
   height="24"
   viewBox="0 0 24 24"
   preserveAspectRatio="xMidYMid meet"
   id="svg10"
   sodipodi:docname="Cleric.svg"
   inkscape:version="0.92.3 (2405546, 2018-03-11)">
  <defs
     id="defs14" />
  <sodipodi:namedview
     pagecolor="#ffffff"
     bordercolor="#666666"
     borderopacity="1"
     objecttolerance="10"
     gridtolerance="10"
     guidetolerance="10"
     inkscape:pageopacity="0"
     inkscape:pageshadow="2"
     inkscape:window-width="1920"
     inkscape:window-height="1057"
     id="namedview12"
     showgrid="false"
     units="px"
     inkscape:zoom="11.051707"
     inkscape:cx="24.96723"
     inkscape:cy="11.0144"
     inkscape:window-x="3832"
     inkscape:window-y="-8"
     inkscape:window-maximized="1"
     inkscape:current-layer="svg10" />
  <metadata
     id="metadata2">
Created by potrace 1.15, written by Peter Selinger 2001-2017
<rdf:RDF>
  <cc:Work
     rdf:about="">
    <dc:format>image/svg+xml</dc:format>
    <dc:type
       rdf:resource="http://purl.org/dc/dcmitype/StillImage" />
    <dc:title></dc:title>
  </cc:Work>
</rdf:RDF>
</metadata>
  <g
     transform="matrix(0.0028169,0,0,-0.0028169,2.479121,25.915492)"
     id="g8"
     style="fill:#000000;stroke:none">
    <path
       d="m 3326,8808 -48,-393 -116,-267 -116,-266 -186,-85 -185,-85 -220,-41 c -121,-23 -246,-41 -277,-41 -41,0 -91,12 -182,44 -69,24 -126,39 -126,34 0,-5 20,-99 45,-210 25,-111 45,-218 45,-237 0,-20 -22,-140 -49,-268 l -48,-232 -78,-123 c -43,-68 -89,-141 -103,-164 -20,-32 -71,-71 -261,-195 l -236,-155 -137,-29 c -76,-15 -138,-31 -138,-34 0,-4 42,-28 92,-53 83,-42 118,-70 336,-270 l 243,-223 141,-355 141,-355 -2,-305 c -2,-212 -7,-323 -16,-364 -8,-32 -12,-56 -10,-54 3,2 94,130 204,283 l 199,279 -50,56 c -149,167 -288,431 -352,670 -53,199 -60,266 -60,550 -1,287 12,389 68,577 185,616 651,1055 1209,1137 142,22 526,22 657,1 568,-91 1037,-539 1209,-1153 57,-203 65,-272 65,-562 1,-232 -2,-279 -21,-380 -63,-327 -204,-631 -391,-840 l -50,-56 199,-279 c 110,-153 201,-281 204,-283 2,-2 -3,22 -10,55 -11,43 -14,137 -15,363 v 305 l 139,355 139,354 243,223 c 219,200 254,229 337,271 50,25 92,49 92,53 0,3 -62,19 -137,34 l -138,29 -236,155 c -190,124 -241,163 -261,195 -14,23 -60,96 -103,164 l -78,122 -48,233 c -27,127 -49,248 -49,268 0,19 20,126 45,237 25,111 45,205 45,210 0,5 -57,-10 -126,-34 -91,-32 -141,-44 -182,-44 -31,0 -156,18 -277,41 l -220,41 -185,85 -186,85 -116,266 -117,267 -47,393 c -27,215 -51,392 -54,392 -3,0 -27,-177 -54,-392 z"
       id="path4"
       inkscape:connector-curvature="0" />
    <path
       d="m 3310,6828 c -36,-5 -112,-25 -169,-44 -80,-28 -116,-35 -158,-32 l -53,3 v -36 c 0,-33 -7,-42 -69,-93 -38,-30 -97,-89 -131,-131 -55,-67 -65,-75 -96,-75 h -34 v -64 c 0,-45 -9,-92 -29,-153 -16,-48 -35,-125 -41,-170 l -12,-83 h -36 c -42,0 -32,-17 12,-22 29,-3 30,-6 43,-81 7,-43 29,-120 48,-171 39,-103 45,-169 18,-198 -15,-17 -14,-18 36,-18 h 53 l 91,-93 c 51,-51 107,-102 125,-112 29,-18 32,-24 32,-69 0,-39 3,-47 12,-38 19,19 119,14 192,-8 l 66,-21 v -236 -237 l 36,-37 36,-37 -11,-683 c -6,-376 -15,-1024 -21,-1439 -14,-1090 -8,-989 -68,-1145 l -51,-130 -2,-167 -3,-166 122,-81 c 67,-45 127,-81 132,-81 5,0 65,36 132,81 l 123,81 -3,167 -4,166 -51,130 -51,130 -3,155 c -2,85 -10,634 -18,1220 -8,586 -17,1223 -21,1415 l -6,350 36,34 36,35 v 238 237 l 66,21 c 73,22 173,27 192,8 9,-9 12,-1 12,38 1,48 2,50 62,94 33,25 87,75 121,113 l 60,67 h 55 c 53,0 54,1 39,18 -26,29 -21,95 17,196 19,50 39,118 45,151 21,110 19,105 51,105 16,0 32,5 35,10 4,6 -8,10 -28,10 h -35 l -12,83 c -6,45 -25,122 -41,170 -20,61 -29,108 -29,153 v 64 h -34 c -31,0 -41,8 -96,75 -34,42 -93,101 -131,131 -62,51 -69,60 -69,93 v 36 l -55,-3 c -43,-3 -75,3 -141,27 -66,24 -251,67 -258,60 0,-1 -30,-6 -66,-11 z"
       id="path6"
       inkscape:connector-curvature="0" />
  </g>
</svg>
