<?xml version="1.0" encoding="UTF-8" standalone="no"?>
<svg
   xmlns:dc="http://purl.org/dc/elements/1.1/"
   xmlns:cc="http://creativecommons.org/ns#"
   xmlns:rdf="http://www.w3.org/1999/02/22-rdf-syntax-ns#"
   xmlns:svg="http://www.w3.org/2000/svg"
   xmlns="http://www.w3.org/2000/svg"
   xmlns:sodipodi="http://sodipodi.sourceforge.net/DTD/sodipodi-0.dtd"
   xmlns:inkscape="http://www.inkscape.org/namespaces/inkscape"
   version="1.0"
   width="24"
   height="24"
   viewBox="0 0 24 24"
   preserveAspectRatio="xMidYMid meet"
   id="svg12"
   sodipodi:docname="Druid.svg"
   inkscape:version="0.92.3 (2405546, 2018-03-11)">
  <defs
     id="defs16" />
  <sodipodi:namedview
     pagecolor="#ffffff"
     bordercolor="#666666"
     borderopacity="1"
     objecttolerance="10"
     gridtolerance="10"
     guidetolerance="10"
     inkscape:pageopacity="0"
     inkscape:pageshadow="2"
     inkscape:window-width="1920"
     inkscape:window-height="1057"
     id="namedview14"
     showgrid="false"
     units="px"
     inkscape:zoom="24"
     inkscape:cx="24.893679"
     inkscape:cy="7.8506794"
     inkscape:window-x="3832"
     inkscape:window-y="-8"
     inkscape:window-maximized="1"
     inkscape:current-layer="svg12" />
  <metadata
     id="metadata2">
Created by potrace 1.15, written by Peter Selinger 2001-2017
<rdf:RDF>
  <cc:Work
     rdf:about="">
    <dc:format>image/svg+xml</dc:format>
    <dc:type
       rdf:resource="http://purl.org/dc/dcmitype/StillImage" />
    <dc:title></dc:title>
  </cc:Work>
</rdf:RDF>
</metadata>
  <g
     transform="matrix(0.00292784,0,0,-0.00292782,3.3499004,25.815248)"
     id="g10"
     style="fill:#000000;stroke:none">
    <path
       d="m 3400,8809 c -239,-17 -416,-57 -668,-149 -46,-16 -91,-30 -99,-30 -9,0 -24,-6 -32,-14 -9,-7 -54,-34 -101,-58 -376,-197 -682,-474 -905,-818 -123,-190 -243,-475 -279,-665 -46,-235 -47,-540 -2,-710 54,-201 80,-271 159,-425 132,-254 342,-472 647,-669 114,-74 106,-69 259,-153 73,-40 149,-86 168,-103 45,-39 52,-76 53,-277 0,-146 -1,-158 -18,-158 -18,0 -82,-58 -82,-75 0,-5 -19,-29 -42,-53 l -43,-43 1,-672 c 1,-370 4,-760 8,-867 4,-107 10,-322 13,-477 6,-273 5,-283 -13,-283 -18,-1 -18,-1 -1,-11 15,-9 17,-33 17,-271 0,-287 -11,-367 -56,-421 -13,-16 -24,-35 -24,-42 0,-8 -9,-16 -19,-20 -36,-11 -91,-82 -91,-118 0,-18 -5,-38 -11,-44 -6,-6 -13,-64 -16,-129 l -5,-119 66,-58 c 36,-32 86,-67 110,-78 49,-21 116,-85 116,-110 0,-27 53,-69 87,-69 18,0 35,4 38,10 3,5 48,10 98,10 111,0 156,18 210,80 20,24 37,48 37,52 0,5 9,28 19,51 11,23 25,88 31,145 11,96 11,105 -8,146 -17,36 -22,71 -27,197 -10,300 -26,1222 -20,1237 3,8 0,21 -6,29 -9,10 -11,120 -6,441 9,584 10,920 2,1027 -5,60 -2,142 9,244 13,124 14,160 4,190 -13,39 -84,121 -105,121 -16,0 -18,127 -3,245 23,187 38,400 29,410 -5,5 -9,16 -9,25 0,9 -10,26 -23,38 -21,20 -34,22 -130,22 h -108 l -77,63 c -42,35 -129,103 -192,151 -211,161 -296,248 -402,416 -107,168 -184,378 -207,570 -71,569 255,1216 778,1541 32,20 93,55 146,84 22,11 49,26 60,33 62,35 342,132 445,154 25,5 68,16 95,23 127,36 360,62 623,71 156,6 205,10 209,21 4,10 43,13 183,13 184,0 266,-11 425,-58 39,-11 117,-29 175,-41 169,-33 300,-61 380,-81 41,-11 75,-18 76,-17 5,5 -133,116 -181,146 -27,17 -72,40 -100,50 -29,11 -95,45 -148,75 -53,31 -99,56 -102,56 -3,0 -33,13 -67,29 -131,59 -422,124 -678,151 -284,29 -464,34 -670,19 z"
       id="path4"
       inkscape:connector-curvature="0" />
    <path
       d="m 977,4955 c -42,-22 -55,-39 -92,-119 -30,-65 -46,-120 -89,-311 -6,-27 -11,-125 -11,-217 0,-91 -4,-170 -8,-175 -5,-4 -45,-10 -90,-13 l -82,-5 -23,-45 c -32,-62 -24,-138 23,-236 45,-91 98,-157 175,-218 34,-27 69,-56 78,-66 10,-9 33,-27 52,-40 19,-13 50,-37 68,-54 29,-27 32,-36 32,-86 v -56 l -69,-32 c -134,-62 -141,-148 -19,-225 65,-41 109,-57 160,-57 22,0 49,-5 61,-12 12,-7 67,-15 122,-18 57,-4 116,-14 138,-23 36,-16 37,-17 37,-72 0,-49 -3,-57 -25,-67 -14,-6 -25,-15 -25,-19 0,-9 46,-45 97,-75 17,-10 77,-52 133,-91 55,-40 103,-73 106,-73 3,0 43,-18 90,-40 105,-49 174,-56 174,-16 0,14 4,27 9,30 22,14 20,67 -6,123 -21,45 -28,78 -31,146 l -4,88 -34,14 c -34,14 -34,14 -34,81 v 67 l 68,67 c 75,72 129,166 139,240 7,47 6,47 -76,14 -18,-8 -58,-14 -87,-14 h -54 v 66 c 0,65 1,67 51,127 58,69 77,104 94,168 15,54 0,113 -35,141 -23,18 -41,15 -79,-14 -18,-13 -41,-18 -92,-18 -67,0 -69,1 -85,32 -19,36 -15,122 10,228 42,176 -8,399 -101,449 -20,10 -25,7 -56,-46 l -33,-58 -54,-3 c -89,-5 -95,-1 -141,96 -23,48 -55,106 -71,129 -16,23 -41,71 -57,105 -35,79 -109,162 -172,194 -57,28 -48,27 -82,9 z"
       id="path6"
       inkscape:connector-curvature="0" />
    <path
       d="m 4339,4295 c -62,-32 -135,-116 -170,-193 -16,-34 -41,-82 -57,-105 -16,-23 -48,-81 -71,-129 -46,-97 -52,-101 -141,-96 l -54,3 -33,58 c -32,53 -36,56 -56,45 -98,-52 -145,-283 -97,-472 24,-94 26,-166 5,-206 -15,-29 -18,-30 -84,-30 -53,0 -74,4 -94,20 -64,51 -122,0 -114,-101 6,-67 30,-117 96,-196 50,-60 51,-62 51,-127 v -66 h -54 c -29,0 -69,6 -87,14 -82,33 -83,33 -76,-14 10,-74 64,-168 139,-240 l 68,-67 v -67 c 0,-67 0,-67 -34,-81 l -33,-14 -6,-93 c -4,-73 -11,-104 -32,-147 -35,-71 -30,-81 45,-81 h 60 v -40 c 0,-22 2,-40 4,-40 25,0 193,91 270,145 54,39 112,79 129,89 51,31 97,66 97,75 0,4 -11,13 -25,19 -22,10 -25,18 -25,67 0,55 1,56 38,72 21,9 80,19 137,23 55,3 110,11 122,18 12,7 39,12 61,12 51,0 95,16 160,57 122,77 115,163 -19,225 l -69,32 v 57 c 0,54 2,58 45,98 24,22 48,41 53,41 5,0 24,14 43,31 19,17 62,54 97,82 76,60 121,117 167,212 47,97 55,173 23,235 l -23,45 -83,5 c -58,4 -86,9 -93,20 -6,9 -7,69 -3,156 4,92 3,158 -5,190 -6,27 -23,101 -37,164 -30,132 -81,252 -121,286 -16,13 -31,24 -35,24 -3,0 -12,2 -20,5 -7,2 -34,-7 -59,-20 z"
       id="path8"
       inkscape:connector-curvature="0" />
  </g>
</svg>
