<?xml version="1.0" encoding="UTF-8" standalone="no"?>
<svg
   xmlns:dc="http://purl.org/dc/elements/1.1/"
   xmlns:cc="http://creativecommons.org/ns#"
   xmlns:rdf="http://www.w3.org/1999/02/22-rdf-syntax-ns#"
   xmlns:svg="http://www.w3.org/2000/svg"
   xmlns="http://www.w3.org/2000/svg"
   xmlns:sodipodi="http://sodipodi.sourceforge.net/DTD/sodipodi-0.dtd"
   xmlns:inkscape="http://www.inkscape.org/namespaces/inkscape"
   version="1.0"
   width="24"
   height="24"
   viewBox="0 0 24 24"
   preserveAspectRatio="xMidYMid meet"
   id="svg8"
   sodipodi:docname="Paladin.svg"
   inkscape:version="0.92.3 (2405546, 2018-03-11)">
  <defs
     id="defs12" />
  <sodipodi:namedview
     pagecolor="#ffffff"
     bordercolor="#666666"
     borderopacity="1"
     objecttolerance="10"
     gridtolerance="10"
     guidetolerance="10"
     inkscape:pageopacity="0"
     inkscape:pageshadow="2"
     inkscape:window-width="1920"
     inkscape:window-height="1057"
     id="namedview10"
     showgrid="false"
     units="px"
     inkscape:zoom="16.068417"
     inkscape:cx="19.09458"
     inkscape:cy="25.207835"
     inkscape:window-x="3832"
     inkscape:window-y="-8"
     inkscape:window-maximized="1"
     inkscape:current-layer="svg8" />
  <metadata
     id="metadata2">
Created by potrace 1.15, written by Peter Selinger 2001-2017
<rdf:RDF>
  <cc:Work
     rdf:about="">
    <dc:format>image/svg+xml</dc:format>
    <dc:type
       rdf:resource="http://purl.org/dc/dcmitype/StillImage" />
    <dc:title></dc:title>
  </cc:Work>
</rdf:RDF>
</metadata>
  <g
     transform="matrix(0.00291548,0,0,-0.00291545,1.7375046,26.201165)"
     id="g6"
     style="fill:#000000;stroke:none">
    <path
       d="m 1526,8842 c -44,-81 -86,-159 -95,-173 -9,-15 -81,-78 -160,-140 l -143,-114 -91,-203 -90,-203 77,-382 c 65,-328 76,-397 76,-485 v -103 l -62,3 -62,3 -68,264 c -37,145 -69,265 -71,267 -2,2 -43,-123 -92,-278 l -88,-281 87,-514 c 77,-450 87,-522 81,-583 l -7,-70 h -52 -51 l -55,101 c -30,56 -56,96 -58,91 -2,-6 4,-113 13,-238 l 16,-227 74,-141 c 54,-100 112,-188 200,-304 121,-158 125,-164 125,-212 v -50 h -56 c -49,0 -66,6 -130,45 -59,35 -74,41 -73,27 0,-9 15,-73 32,-141 l 32,-125 252,-135 253,-134 v -54 -53 h -65 c -36,0 -111,7 -166,17 -54,9 -102,14 -105,10 -3,-3 35,-66 85,-141 l 91,-136 h 73 c 39,0 136,-3 215,-7 l 142,-6 v -52 -53 l -80,-32 c -55,-22 -80,-37 -80,-49 0,-21 215,-130 228,-116 5,6 62,72 127,149 l 118,139 -17,256 -17,256 55,244 c 31,135 56,246 56,248 0,2 27,3 59,3 98,0 224,-35 297,-83 l 64,-42 v -50 c 0,-27 -20,-383 -45,-790 -25,-407 -45,-764 -45,-794 0,-49 -6,-65 -56,-147 -53,-87 -60,-94 -125,-129 -38,-20 -88,-51 -112,-69 -39,-29 -54,-34 -128,-40 -46,-4 -99,-10 -117,-14 l -33,-7 140,-120 141,-120 366,-560 367,-560 160,-340 c 87,-187 165,-356 172,-375 l 13,-35 5,35 c 3,19 11,382 17,805 6,424 16,838 21,920 20,310 22,402 10,436 -7,19 -25,108 -42,199 -16,91 -41,217 -55,280 l -27,115 -154,228 c -196,291 -323,536 -323,622 v 55 h 83 c 45,0 152,-5 238,-12 l 157,-11 213,-158 214,-157 25,-78 26,-78 23,77 22,76 215,158 c 246,182 195,164 517,178 l 177,8 v -57 c 0,-51 -8,-73 -85,-225 -58,-117 -131,-240 -238,-398 l -153,-228 -28,-115 c -15,-63 -40,-189 -56,-280 -16,-91 -34,-180 -41,-199 -12,-35 -10,-132 10,-436 5,-82 15,-483 21,-890 6,-407 13,-769 16,-805 l 7,-65 12,35 c 7,19 85,188 172,375 l 160,340 367,560 366,560 141,120 c 160,137 161,126 -8,140 -76,6 -90,11 -129,40 -23,18 -75,50 -114,71 -66,36 -74,44 -125,129 -49,80 -55,97 -55,145 0,30 -20,388 -45,795 -25,407 -45,763 -45,792 v 52 l 58,40 c 42,28 83,45 146,60 76,18 206,29 206,17 0,-2 25,-113 56,-247 l 55,-244 -17,-256 -17,-257 123,-143 c 68,-79 125,-146 127,-148 2,-3 53,19 113,49 75,37 110,60 110,71 0,12 -25,27 -80,49 l -80,32 v 53 52 l 143,6 c 78,4 175,7 214,7 h 73 l 91,136 c 50,75 88,138 85,141 -2,3 -50,-2 -106,-11 -55,-9 -130,-16 -165,-16 h -65 v 53 54 l 252,134 253,135 32,130 c 18,71 32,135 33,141 0,7 -33,-8 -74,-32 -62,-38 -82,-45 -125,-45 h -51 v 55 56 l 123,162 c 85,112 145,204 195,298 l 71,136 16,227 c 9,125 15,232 13,238 -2,5 -28,-35 -58,-91 l -55,-101 h -51 -52 l -7,70 c -6,61 4,133 81,583 l 88,514 -89,281 c -49,155 -91,280 -93,278 -2,-2 -33,-122 -70,-267 l -68,-264 -62,-3 -62,-3 v 103 c 0,88 11,157 76,485 l 77,382 -90,203 -91,203 -143,113 c -107,85 -151,126 -170,160 -15,26 -59,106 -98,177 -40,72 -70,121 -67,110 2,-11 17,-92 32,-180 24,-147 35,-183 131,-440 l 105,-280 14,-145 c 28,-299 20,-380 -89,-890 l -63,-296 -208,-242 c -188,-219 -211,-243 -249,-253 -23,-6 -66,-17 -95,-26 -43,-12 -84,-13 -213,-8 l -160,8 -41,48 -41,48 -62,-54 c -58,-51 -66,-55 -114,-55 h -51 l -84,128 c -72,110 -119,164 -345,399 l -262,272 -56,123 c -31,68 -57,124 -57,125 -1,1 -26,-53 -56,-120 l -55,-122 -268,-280 c -236,-247 -278,-295 -350,-407 l -82,-128 h -49 c -45,0 -53,4 -116,60 l -67,60 -41,-49 -41,-48 -159,-8 c -155,-7 -163,-6 -256,21 l -97,27 -206,240 -207,241 -63,295 c -107,500 -117,594 -89,891 l 14,145 102,270 c 95,252 104,282 135,455 18,102 33,186 32,187 -1,1 -38,-65 -81,-145 z"
       id="path4"
       inkscape:connector-curvature="0" />
  </g>
</svg>
