<?xml version="1.0" encoding="UTF-8" standalone="no"?>
<svg
   xmlns:dc="http://purl.org/dc/elements/1.1/"
   xmlns:cc="http://creativecommons.org/ns#"
   xmlns:rdf="http://www.w3.org/1999/02/22-rdf-syntax-ns#"
   xmlns:svg="http://www.w3.org/2000/svg"
   xmlns="http://www.w3.org/2000/svg"
   xmlns:sodipodi="http://sodipodi.sourceforge.net/DTD/sodipodi-0.dtd"
   xmlns:inkscape="http://www.inkscape.org/namespaces/inkscape"
   version="1.0"
   width="24"
   height="24"
   viewBox="0 0 24 24"
   preserveAspectRatio="xMidYMid meet"
   id="svg22"
   sodipodi:docname="Ranger.svg"
   inkscape:version="0.92.3 (2405546, 2018-03-11)">
  <defs
     id="defs26" />
  <sodipodi:namedview
     pagecolor="#ffffff"
     bordercolor="#666666"
     borderopacity="1"
     objecttolerance="10"
     gridtolerance="10"
     guidetolerance="10"
     inkscape:pageopacity="0"
     inkscape:pageshadow="2"
     inkscape:window-width="1920"
     inkscape:window-height="1057"
     id="namedview24"
     showgrid="false"
     units="px"
     inkscape:zoom="22.724173"
     inkscape:cx="8.8355691"
     inkscape:cy="15.50969"
     inkscape:window-x="3832"
     inkscape:window-y="-8"
     inkscape:window-maximized="1"
     inkscape:current-layer="svg22" />
  <metadata
     id="metadata2">
Created by potrace 1.15, written by Peter Selinger 2001-2017
<rdf:RDF>
  <cc:Work
     rdf:about="">
    <dc:format>image/svg+xml</dc:format>
    <dc:type
       rdf:resource="http://purl.org/dc/dcmitype/StillImage" />
    <dc:title></dc:title>
  </cc:Work>
</rdf:RDF>
</metadata>
  <g
     transform="matrix(0.00275577,0,0,-0.00275575,2.0388449,25.1023)"
     id="g20"
     style="fill:#000000;stroke:none">
    <path
       d="m 1155,9076 c -11,-58 23,-544 65,-923 37,-331 43,-371 115,-685 65,-289 89,-373 180,-638 57,-168 144,-397 194,-510 l 89,-205 159,-200 159,-201 320,-263 c 272,-224 488,-391 507,-391 2,0 99,105 215,233 116,127 231,252 256,277 25,24 46,48 46,53 0,5 -58,72 -128,150 -71,78 -270,306 -443,507 l -315,365 -484,730 -484,730 -184,380 c -146,300 -192,404 -219,500 -20,66 -37,122 -39,124 -1,1 -6,-13 -9,-33 z"
       id="path4"
       inkscape:connector-curvature="0" />
    <path
       d="m 6030,8995 c -27,-98 -68,-191 -220,-505 l -186,-385 -484,-730 -484,-730 -315,-365 c -359,-416 -659,-753 -677,-760 -7,-3 -116,-120 -244,-260 -211,-233 -387,-455 -492,-620 -102,-159 -558,-903 -558,-910 0,-4 17,-15 39,-24 l 38,-18 7,-90 c 3,-50 6,-125 6,-167 l -1,-76 -97,-106 c -84,-92 -111,-114 -203,-167 l -106,-61 -22,-108 c -19,-84 -65,-212 -219,-593 -107,-267 -201,-512 -208,-545 -6,-33 -17,-86 -24,-118 l -11,-57 h -54 c -57,0 -145,-34 -145,-56 0,-6 7,-31 15,-54 29,-81 20,-138 -46,-317 -47,-126 -58,-167 -49,-178 6,-7 10,-37 8,-66 -3,-52 -4,-54 -58,-92 -60,-42 -65,-47 -74,-93 -6,-27 0,-40 47,-100 68,-87 107,-163 107,-209 0,-19 2,-35 5,-35 3,0 32,14 65,30 36,18 75,30 98,30 38,0 40,1 46,39 5,33 16,47 71,91 36,28 67,61 70,73 2,12 11,85 19,162 14,132 21,158 121,465 151,459 400,1075 624,1538 157,324 189,383 403,727 231,372 235,378 469,661 234,283 238,287 425,442 104,86 223,177 264,202 167,101 503,351 800,595 l 314,260 159,200 159,200 89,205 c 50,113 137,342 194,510 91,265 115,349 180,638 72,315 78,353 115,690 46,406 77,876 63,925 -8,30 -11,24 -43,-88 z"
       id="path6"
       inkscape:connector-curvature="0" />
    <path
       d="m 4139,4706 c -59,-35 -131,-93 -226,-182 l -140,-131 191,-232 c 181,-218 203,-251 423,-604 213,-343 246,-403 403,-728 225,-464 474,-1079 625,-1539 100,-307 107,-333 121,-465 8,-77 17,-150 19,-162 3,-12 34,-45 70,-73 55,-44 66,-58 71,-91 6,-38 8,-39 46,-39 23,0 62,-12 98,-30 33,-17 62,-30 65,-30 3,0 5,16 5,35 0,46 39,122 107,209 47,60 53,73 47,100 -9,46 -14,51 -74,93 -54,38 -55,40 -58,92 -2,29 2,59 8,66 9,11 -2,52 -49,178 -66,179 -75,236 -46,317 8,23 15,48 15,54 0,22 -88,56 -145,56 h -54 l -11,58 c -7,31 -18,84 -24,117 -7,33 -101,278 -208,545 -154,381 -201,509 -219,593 l -22,108 -106,61 c -92,53 -118,74 -201,165 -109,121 -105,108 -95,309 l 7,132 39,17 c 21,10 39,21 39,26 0,8 -617,1010 -628,1020 -4,4 -46,-17 -93,-45 z"
       id="path8"
       inkscape:connector-curvature="0" />
    <path
       d="m 3310,2888 c -24,-40 -88,-118 -142,-173 l -97,-100 -12,-112 c -7,-68 -9,-154 -4,-216 l 7,-102 101,-124 c 93,-112 107,-125 161,-147 58,-23 60,-23 121,-7 l 62,16 23,175 c 12,96 22,189 22,207 0,50 -30,190 -69,315 -30,99 -41,121 -76,158 -39,40 -42,47 -47,113 l -5,70 z"
       id="path10"
       inkscape:connector-curvature="0" />
    <path
       d="m 3960,2897 c 0,-66 -1,-69 -44,-115 -38,-40 -49,-63 -79,-162 -38,-124 -69,-264 -69,-315 0,-18 10,-111 22,-206 l 23,-175 59,-17 c 58,-17 60,-17 119,4 57,21 67,30 164,148 l 103,126 7,103 c 5,63 3,147 -5,215 l -12,112 -93,95 c -51,52 -116,131 -144,175 l -51,80 z"
       id="path12"
       inkscape:connector-curvature="0" />
    <path
       d="m 2791,2244 c 0,-6 -35,-65 -77,-130 -42,-66 -96,-159 -119,-209 -23,-49 -52,-112 -65,-138 -19,-41 -21,-57 -16,-110 6,-51 18,-79 68,-162 76,-126 160,-215 203,-215 48,0 149,74 206,152 43,59 49,74 49,117 0,27 -8,69 -19,93 -10,24 -23,67 -30,96 -7,33 -35,91 -77,158 -72,117 -102,194 -113,294 -5,36 -9,60 -10,54 z"
       id="path14"
       inkscape:connector-curvature="0" />
    <path
       d="m 4520,2204 c 0,-78 -43,-192 -114,-308 -36,-58 -70,-126 -76,-151 -6,-25 -19,-69 -30,-98 -11,-28 -20,-73 -20,-99 0,-41 7,-57 46,-112 55,-76 162,-156 209,-156 43,0 127,89 204,217 51,84 62,111 67,162 6,50 3,68 -16,108 -13,26 -43,90 -66,141 -24,51 -57,113 -74,137 -16,24 -52,80 -80,126 l -50,82 z"
       id="path16"
       inkscape:connector-curvature="0" />
    <path
       d="m 3510,1610 c -47,-17 -106,-39 -132,-47 l -46,-16 -88,-166 c -131,-250 -139,-262 -198,-314 -43,-37 -83,-58 -184,-97 -84,-33 -138,-60 -156,-79 l -27,-28 40,-65 c 29,-46 67,-85 133,-139 105,-84 129,-98 178,-99 19,0 138,25 264,55 220,53 234,55 366,55 132,0 146,-2 366,-55 126,-30 245,-55 264,-55 49,1 73,15 178,99 66,54 104,93 133,139 l 40,65 -27,28 c -17,18 -73,46 -156,78 -101,40 -141,61 -184,98 -59,52 -66,64 -198,313 l -87,165 -122,45 c -164,60 -236,64 -357,20 z"
       id="path18"
       inkscape:connector-curvature="0" />
  </g>
</svg>
