<?xml version="1.0" encoding="UTF-8" standalone="no"?>
<svg
   xmlns:dc="http://purl.org/dc/elements/1.1/"
   xmlns:cc="http://creativecommons.org/ns#"
   xmlns:rdf="http://www.w3.org/1999/02/22-rdf-syntax-ns#"
   xmlns:svg="http://www.w3.org/2000/svg"
   xmlns="http://www.w3.org/2000/svg"
   xmlns:sodipodi="http://sodipodi.sourceforge.net/DTD/sodipodi-0.dtd"
   xmlns:inkscape="http://www.inkscape.org/namespaces/inkscape"
   version="1.0"
   width="24"
   height="24"
   viewBox="0 0 24 24"
   preserveAspectRatio="xMidYMid meet"
   id="svg10"
   sodipodi:docname="Rogue.svg"
   inkscape:version="0.92.3 (2405546, 2018-03-11)">
  <defs
     id="defs14" />
  <sodipodi:namedview
     pagecolor="#ffffff"
     bordercolor="#666666"
     borderopacity="1"
     objecttolerance="10"
     gridtolerance="10"
     guidetolerance="10"
     inkscape:pageopacity="0"
     inkscape:pageshadow="2"
     inkscape:window-width="1920"
     inkscape:window-height="1057"
     id="namedview12"
     showgrid="false"
     units="px"
     inkscape:zoom="12.628762"
     inkscape:cx="49.627715"
     inkscape:cy="11.934888"
     inkscape:window-x="3832"
     inkscape:window-y="-8"
     inkscape:window-maximized="1"
     inkscape:current-layer="svg10" />
  <metadata
     id="metadata2">
Created by potrace 1.15, written by Peter Selinger 2001-2017
<rdf:RDF>
  <cc:Work
     rdf:about="">
    <dc:format>image/svg+xml</dc:format>
    <dc:type
       rdf:resource="http://purl.org/dc/dcmitype/StillImage" />
    <dc:title></dc:title>
  </cc:Work>
</rdf:RDF>
</metadata>
  <g
     transform="matrix(0.00308081,0,0,-0.00308083,1.0976225,25.857721)"
     id="g8"
     style="fill:#000000;stroke:none">
    <path
       d="m 3545,8392 c -41,-4 -55,-27 -55,-86 0,-28 -5,-100 -12,-160 l -11,-108 55,-54 55,-53 53,54 53,54 -12,153 c -16,204 -13,195 -58,199 -21,2 -51,3 -68,1 z"
       id="path4"
       inkscape:connector-curvature="0" />
    <path
       d="m 1540,8024 c -107,-41 -256,-97 -330,-124 -74,-28 -143,-54 -152,-60 -15,-9 -360,-111 -563,-167 -49,-14 -98,-27 -108,-30 -15,-5 -9,-12 29,-39 26,-18 160,-143 298,-276 138,-133 287,-277 331,-319 l 80,-76 275,-72 c 274,-72 374,-106 990,-338 200,-75 230,-84 269,-78 30,5 103,41 230,114 213,124 365,181 481,181 h 61 l -2,-147 c -1,-120 7,-214 40,-488 23,-187 47,-385 54,-440 6,-55 12,-129 12,-165 v -65 l -145,1 c -120,0 -135,-1 -85,-8 111,-17 105,-13 105,-64 0,-25 -7,-123 -16,-217 -13,-141 -19,-177 -36,-201 -20,-28 -20,-37 -14,-220 4,-105 11,-274 16,-376 6,-102 15,-306 20,-455 6,-148 14,-344 20,-435 5,-91 14,-266 20,-390 5,-124 14,-322 20,-440 12,-257 34,-743 55,-1195 16,-330 16,-330 66,-580 28,-137 52,-251 53,-252 1,-1 23,114 50,255 55,286 47,181 81,1127 9,242 25,681 36,975 11,294 24,659 29,810 5,151 14,399 20,550 5,151 10,350 11,443 2,149 0,169 -16,188 -15,15 -23,56 -37,187 -21,200 -22,256 -5,270 16,14 142,32 218,32 60,0 63,-1 104,-44 l 41,-44 43,85 c 24,49 36,83 28,80 -129,-49 -397,-93 -522,-85 l -50,3 v 75 c 1,41 6,125 13,185 7,61 19,171 27,245 8,74 24,216 36,315 13,110 20,233 20,318 l -2,137 h 62 c 100,0 187,-34 389,-151 117,-68 200,-109 227,-114 38,-6 86,10 505,166 400,149 501,182 749,248 l 287,76 264,256 c 339,329 402,388 445,417 19,13 33,25 31,27 -4,4 -243,75 -408,120 -152,42 -231,69 -475,162 -93,35 -206,78 -250,94 -103,39 -151,58 -197,76 -34,14 -48,14 -150,-3 l -113,-18 -210,-124 c -115,-69 -275,-164 -355,-211 -80,-48 -200,-120 -268,-161 l -124,-73 -208,-10 c -115,-5 -216,-7 -225,-4 -11,5 -15,22 -15,68 0,57 -3,65 -51,134 -28,41 -57,79 -64,85 -10,8 -25,-7 -68,-72 -49,-73 -56,-91 -62,-150 l -7,-68 h -106 c -59,1 -177,5 -262,9 l -155,9 -290,172 c -703,419 -652,391 -740,407 -153,27 -143,29 -355,-53 z m 855,-777 320,-202 3,-56 3,-56 -77,-6 c -203,-18 -195,-19 -620,121 l -389,129 -3,54 -3,55 168,81 c 249,121 203,130 598,-120 z m 2871,124 169,-78 3,-59 2,-59 -392,-128 c -429,-140 -423,-139 -620,-120 l -68,6 v 56 56 l 318,202 c 390,248 344,238 588,124 z"
       id="path6"
       inkscape:connector-curvature="0" />
  </g>
</svg>
