<?xml version="1.0" encoding="UTF-8" standalone="no"?>
<svg
   xmlns:dc="http://purl.org/dc/elements/1.1/"
   xmlns:cc="http://creativecommons.org/ns#"
   xmlns:rdf="http://www.w3.org/1999/02/22-rdf-syntax-ns#"
   xmlns:svg="http://www.w3.org/2000/svg"
   xmlns="http://www.w3.org/2000/svg"
   xmlns:sodipodi="http://sodipodi.sourceforge.net/DTD/sodipodi-0.dtd"
   xmlns:inkscape="http://www.inkscape.org/namespaces/inkscape"
   version="1.0"
   width="24"
   height="24"
   viewBox="0 0 24 24"
   preserveAspectRatio="xMidYMid meet"
   id="svg8"
   sodipodi:docname="Sorcerer.svg"
   inkscape:version="0.92.3 (2405546, 2018-03-11)">
  <defs
     id="defs12" />
  <sodipodi:namedview
     pagecolor="#ffffff"
     bordercolor="#666666"
     borderopacity="1"
     objecttolerance="10"
     gridtolerance="10"
     guidetolerance="10"
     inkscape:pageopacity="0"
     inkscape:pageshadow="2"
     inkscape:window-width="1920"
     inkscape:window-height="1057"
     id="namedview10"
     showgrid="false"
     units="px"
     inkscape:zoom="20.35605"
     inkscape:cx="6.0570966"
     inkscape:cy="16.723907"
     inkscape:window-x="3832"
     inkscape:window-y="-8"
     inkscape:window-maximized="1"
     inkscape:current-layer="svg8" />
  <metadata
     id="metadata2">
Created by potrace 1.15, written by Peter Selinger 2001-2017
<rdf:RDF>
  <cc:Work
     rdf:about="">
    <dc:format>image/svg+xml</dc:format>
    <dc:type
       rdf:resource="http://purl.org/dc/dcmitype/StillImage" />
    <dc:title></dc:title>
  </cc:Work>
</rdf:RDF>
</metadata>
  <g
     transform="matrix(0.00359749,0,0,-0.00359752,4.603056,25.686305)"
     id="g6"
     style="fill:#000000;stroke:none">
    <path
       d="m 2050,7056 c 0,-62 -4,-87 -15,-96 -11,-9 -15,-33 -15,-86 0,-40 -4,-76 -10,-79 -5,-3 -10,-24 -10,-45 0,-21 -4,-42 -10,-45 -5,-3 -10,-37 -10,-75 0,-38 -4,-72 -10,-75 -5,-3 -10,-27 -10,-53 0,-26 -6,-56 -14,-67 -7,-11 -16,-45 -20,-75 -3,-30 -11,-86 -17,-125 -5,-38 -12,-95 -15,-125 -3,-30 -10,-59 -15,-65 -5,-5 -9,-27 -9,-50 -1,-22 -7,-58 -15,-80 -8,-22 -15,-54 -15,-72 0,-17 -4,-35 -10,-38 -5,-3 -10,-19 -10,-35 0,-16 -4,-32 -10,-35 -5,-3 -10,-17 -10,-30 0,-13 -8,-38 -17,-57 -31,-62 -33,-68 -33,-92 0,-14 -4,-28 -10,-31 -5,-3 -10,-17 -10,-31 0,-13 -4,-32 -9,-42 -16,-32 -33,-87 -38,-120 -3,-18 -9,-35 -14,-38 -5,-3 -9,-16 -9,-29 0,-13 -4,-27 -10,-30 -5,-3 -10,-19 -10,-35 0,-16 -4,-32 -10,-35 -5,-3 -10,-16 -10,-28 0,-12 -7,-31 -15,-41 -8,-11 -15,-32 -15,-47 0,-15 -5,-31 -10,-34 -6,-3 -10,-17 -10,-30 0,-13 -4,-27 -10,-30 -5,-3 -10,-17 -10,-31 0,-13 -4,-32 -9,-42 -23,-46 -41,-95 -41,-112 0,-11 -4,-28 -9,-38 -5,-9 -13,-28 -19,-42 -5,-14 -21,-50 -35,-80 -14,-30 -36,-80 -50,-110 -14,-30 -35,-75 -46,-99 -12,-25 -21,-51 -21,-58 0,-7 -4,-13 -10,-13 -5,0 -10,-6 -10,-12 0,-7 -16,-47 -36,-88 -20,-41 -40,-84 -44,-95 -5,-11 -24,-53 -44,-93 -20,-41 -36,-80 -36,-88 0,-8 -4,-14 -10,-14 -5,0 -10,-8 -10,-18 0,-10 -7,-27 -15,-38 -8,-10 -15,-27 -15,-36 0,-10 -4,-18 -10,-18 -5,0 -10,-9 -10,-19 0,-11 -5,-23 -10,-26 -5,-3 -10,-15 -10,-26 0,-10 -4,-19 -10,-19 -5,0 -10,-6 -10,-14 0,-8 -8,-29 -17,-48 -9,-18 -20,-41 -25,-50 -4,-10 -8,-31 -8,-47 0,-17 -4,-33 -10,-36 -5,-3 -10,-21 -10,-40 0,-19 -4,-36 -9,-39 -5,-3 -11,-20 -14,-38 -9,-54 -31,-136 -40,-144 -4,-4 -7,-22 -7,-40 0,-18 -5,-36 -10,-39 -6,-3 -10,-21 -10,-40 0,-19 -4,-36 -9,-39 -5,-3 -11,-23 -14,-43 -5,-37 -40,-150 -58,-185 -5,-10 -9,-28 -9,-41 0,-13 -3,-27 -6,-30 -12,-12 -43,-111 -44,-137 0,-15 -4,-30 -9,-35 -9,-10 -14,-40 -30,-191 -5,-44 -13,-90 -20,-102 -15,-28 -15,-306 0,-334 6,-12 15,-55 20,-97 16,-138 20,-166 29,-186 5,-11 11,-33 13,-50 5,-31 23,-87 38,-117 5,-10 9,-29 9,-42 0,-14 5,-28 10,-31 6,-3 10,-17 10,-31 0,-13 5,-24 10,-24 6,0 10,-7 10,-15 0,-8 15,-48 34,-88 18,-39 37,-79 40,-87 3,-8 18,-33 31,-55 14,-22 28,-48 32,-58 3,-9 9,-17 14,-17 5,0 9,-6 9,-12 1,-14 48,-79 138,-191 48,-60 230,-227 247,-227 3,0 34,-19 68,-43 34,-24 73,-48 87,-54 14,-6 43,-19 65,-29 71,-31 139,-54 162,-54 12,0 25,-4 28,-10 3,-5 44,-10 90,-10 64,0 84,-3 89,-15 8,-21 221,-22 233,-1 5,10 33,16 83,19 93,7 149,17 156,28 3,5 12,9 21,9 16,0 52,15 153,63 167,81 371,260 498,439 34,47 62,89 62,93 0,4 8,19 19,33 18,27 87,160 102,197 4,11 19,46 33,77 14,31 26,64 26,73 0,8 4,23 9,33 5,9 14,37 21,62 6,25 16,59 22,75 10,30 20,79 39,190 18,109 27,323 18,458 -10,167 -36,335 -58,376 -6,11 -11,31 -11,45 0,14 -4,28 -10,31 -5,3 -10,19 -10,35 0,16 -4,32 -10,35 -5,3 -10,17 -10,31 0,13 -4,32 -9,42 -25,49 -41,95 -41,117 0,13 -4,26 -9,29 -5,3 -11,23 -14,43 -6,46 -19,99 -42,173 -9,30 -19,70 -22,88 -3,18 -9,35 -14,38 -5,3 -9,20 -9,39 0,19 -4,37 -10,40 -5,3 -10,21 -10,40 0,19 -4,37 -10,40 -5,3 -10,17 -10,31 0,13 -11,47 -25,76 -14,28 -25,58 -25,65 0,7 -4,13 -10,13 -5,0 -10,8 -10,19 0,10 -7,24 -15,31 -8,7 -15,19 -15,26 0,8 -4,22 -10,32 -5,9 -25,53 -45,97 -20,44 -45,98 -55,120 -10,22 -26,58 -35,80 -10,22 -30,67 -46,100 -16,33 -29,65 -29,72 0,7 -4,13 -10,13 -5,0 -10,6 -10,12 0,7 -12,38 -26,68 -72,149 -105,223 -124,275 -4,11 -15,37 -24,58 -9,21 -16,46 -16,57 0,10 -4,22 -10,25 -5,3 -10,19 -10,35 0,16 -4,32 -10,35 -5,3 -10,19 -10,35 0,16 -4,32 -10,35 -5,3 -10,16 -10,28 0,12 -7,31 -15,41 -8,11 -15,28 -15,38 0,10 -4,26 -9,36 -5,9 -15,37 -21,62 -7,25 -17,61 -22,80 -6,19 -16,48 -24,63 -8,16 -14,39 -14,52 0,13 -4,27 -10,30 -5,3 -10,19 -10,35 0,16 -4,32 -10,35 -5,3 -10,17 -10,30 0,13 -4,26 -9,29 -5,4 -12,24 -16,46 -4,22 -11,42 -16,46 -5,3 -9,18 -9,34 0,16 -4,32 -10,35 -5,3 -10,15 -10,26 0,10 -4,27 -9,37 -27,55 -38,102 -61,267 -5,39 -14,99 -19,135 -6,36 -15,97 -20,135 -6,39 -15,88 -21,110 -5,22 -10,63 -10,92 0,28 -4,55 -10,58 -5,3 -10,30 -10,60 0,30 -4,57 -10,60 -5,3 -10,44 -10,90 0,46 -4,87 -10,90 -5,3 -10,23 -10,44 0,22 -6,44 -15,51 -9,7 -15,29 -15,51 0,22 -4,39 -10,39 -5,0 -10,20 -10,45 0,25 -4,45 -10,45 -6,0 -10,-35 -10,-84 z m -19,-3316 c 9,-32 9,-188 0,-220 -8,-30 6,-73 65,-198 41,-85 46,-105 54,-201 6,-58 19,-160 30,-226 11,-66 24,-190 27,-275 l 8,-155 6,138 c 4,76 12,151 19,167 12,28 16,30 71,30 34,0 61,-5 65,-12 4,-7 10,-51 12,-98 5,-89 22,-139 61,-174 64,-58 101,-199 101,-389 1,-74 3,-97 11,-84 8,13 24,17 78,17 75,0 91,-10 127,-80 26,-50 32,-216 10,-261 -10,-20 -16,-58 -16,-103 0,-46 -7,-92 -20,-129 -11,-31 -20,-65 -20,-76 0,-11 -11,-33 -25,-49 -20,-24 -41,-34 -95,-46 -48,-11 -85,-27 -116,-51 -25,-19 -58,-38 -72,-41 -50,-11 -52,-13 -52,-54 0,-77 -5,-80 -141,-80 -97,0 -125,3 -146,17 -22,15 -45,17 -134,14 -100,-3 -109,-1 -121,18 -10,16 -23,21 -60,21 -49,0 -70,10 -177,86 -70,50 -91,94 -91,189 0,60 -2,66 -26,77 -14,7 -27,23 -30,38 -3,14 -21,36 -40,49 -19,13 -34,31 -34,41 0,9 -11,27 -25,40 -40,38 -50,83 -50,240 0,185 3,192 88,188 56,-3 62,-5 68,-28 3,-14 8,83 11,215 2,146 9,250 16,267 6,14 31,54 56,88 26,34 46,70 46,80 0,22 18,37 50,42 19,2 26,11 32,42 13,60 23,67 92,64 l 61,-3 13,-50 c 7,-28 12,-89 10,-141 -3,-106 9,-115 42,-28 11,30 28,67 37,81 15,23 18,52 18,193 0,162 -1,166 -27,210 -26,44 -27,51 -34,255 -7,208 0,289 29,352 10,22 16,24 71,21 55,-3 61,-5 67,-28 z"
       id="path4"
       inkscape:connector-curvature="0" />
  </g>
</svg>
