<?xml version="1.0" encoding="UTF-8" standalone="no"?>
<svg
   xmlns:dc="http://purl.org/dc/elements/1.1/"
   xmlns:cc="http://creativecommons.org/ns#"
   xmlns:rdf="http://www.w3.org/1999/02/22-rdf-syntax-ns#"
   xmlns:svg="http://www.w3.org/2000/svg"
   xmlns="http://www.w3.org/2000/svg"
   xmlns:sodipodi="http://sodipodi.sourceforge.net/DTD/sodipodi-0.dtd"
   xmlns:inkscape="http://www.inkscape.org/namespaces/inkscape"
   version="1.0"
   width="24"
   height="24"
   viewBox="0 0 24 24"
   preserveAspectRatio="xMidYMid meet"
   id="svg12"
   sodipodi:docname="Wizard.svg"
   inkscape:version="0.92.3 (2405546, 2018-03-11)">
  <defs
     id="defs16" />
  <sodipodi:namedview
     pagecolor="#ffffff"
     bordercolor="#666666"
     borderopacity="1"
     objecttolerance="10"
     gridtolerance="10"
     guidetolerance="10"
     inkscape:pageopacity="0"
     inkscape:pageshadow="2"
     inkscape:window-width="1920"
     inkscape:window-height="1057"
     id="namedview14"
     showgrid="false"
     units="px"
     inkscape:zoom="11.127701"
     inkscape:cx="21.118028"
     inkscape:cy="18.756144"
     inkscape:window-x="3832"
     inkscape:window-y="-8"
     inkscape:window-maximized="1"
     inkscape:current-layer="svg12" />
  <metadata
     id="metadata2">
Created by potrace 1.15, written by Peter Selinger 2001-2017
<rdf:RDF>
  <cc:Work
     rdf:about="">
    <dc:format>image/svg+xml</dc:format>
    <dc:type
       rdf:resource="http://purl.org/dc/dcmitype/StillImage" />
    <dc:title></dc:title>
  </cc:Work>
</rdf:RDF>
</metadata>
  <g
     transform="matrix(0.00303363,0,0,-0.00303362,0.9683611,26.199089)"
     id="g10"
     style="fill:#000000;stroke:none">
    <path
       d="m 3780,8630 c -94,-14 -250,-67 -270,-93 -10,-13 -34,-32 -54,-42 -21,-11 -36,-27 -36,-37 0,-14 -8,-18 -33,-18 -45,0 -113,-65 -193,-186 -114,-170 -144,-317 -127,-617 l 11,-179 65,-133 c 87,-178 111,-203 265,-276 77,-38 141,-76 170,-103 26,-24 78,-58 116,-76 106,-50 299,-201 347,-271 77,-113 79,-124 79,-370 0,-186 -3,-233 -21,-316 -19,-87 -28,-108 -79,-181 -70,-99 -99,-186 -135,-395 -30,-180 -31,-190 -3,-273 19,-58 23,-64 30,-44 5,14 5,27 -2,34 -15,15 -13,113 3,119 9,3 9,7 -2,20 -9,12 -12,39 -10,95 4,75 6,81 42,123 21,24 71,85 112,136 41,50 79,94 83,97 5,3 25,38 45,78 45,92 67,216 67,372 0,224 -21,332 -100,503 -34,73 -231,285 -311,334 -22,13 -97,61 -167,107 -193,126 -267,224 -319,421 -27,101 -62,342 -62,426 -1,74 23,163 52,193 13,15 31,39 38,54 18,35 127,122 199,158 87,44 156,52 440,48 244,-3 257,-4 308,-27 28,-13 65,-38 81,-56 50,-57 56,-91 56,-315 v -205 l -30,-45 c -23,-34 -39,-46 -65,-51 -36,-7 -108,-32 -215,-74 -42,-16 -92,-26 -161,-31 -94,-6 -104,-5 -142,16 -23,13 -43,29 -46,36 -3,7 -8,67 -12,133 l -7,121 50,50 c 47,47 54,50 100,50 27,0 71,-6 97,-14 46,-14 47,-14 40,7 -12,43 -47,68 -95,69 -58,1 -75,-9 -138,-78 -64,-70 -88,-115 -99,-189 -17,-109 2,-154 113,-257 74,-69 100,-85 188,-118 49,-18 64,-20 138,-11 142,17 162,23 214,56 67,43 88,66 146,156 77,121 109,223 125,392 7,85 1,113 -63,290 -45,124 -80,176 -153,229 -230,169 -210,161 -435,164 -99,1 -205,-1 -235,-6 z"
       id="path4"
       inkscape:connector-curvature="0" />
    <path
       d="m 6068,6118 c -31,-29 -69,-73 -86,-98 -41,-63 -134,-208 -161,-252 -22,-36 -25,-38 -77,-38 h -54 v 60 c 0,36 8,79 20,110 24,60 16,59 -54,-8 -39,-37 -100,-125 -319,-458 -36,-54 -63,-119 -111,-259 l -64,-187 15,-44 c 27,-79 15,-130 -85,-356 -50,-113 -102,-223 -116,-245 -26,-38 -34,-50 -115,-162 l -44,-61 h -53 -54 v 61 c 0,86 56,271 122,404 112,226 132,273 119,289 -10,12 -26,9 -107,-23 -96,-37 -102,-42 -187,-151 -7,-9 -33,-40 -58,-70 -44,-52 -106,-142 -215,-310 -26,-41 -102,-147 -169,-235 -120,-160 -133,-180 -251,-376 -35,-58 -72,-113 -82,-122 -9,-8 -142,-72 -294,-141 -257,-117 -284,-126 -380,-141 -57,-9 -113,-18 -125,-20 -13,-3 -51,-46 -100,-113 -72,-99 -78,-111 -83,-167 l -5,-59 -65,-37 c -36,-20 -83,-55 -106,-78 -37,-37 -46,-41 -89,-41 -64,0 -267,42 -404,83 l -111,34 -13,-21 c -7,-12 -32,-59 -54,-106 -79,-163 -233,-277 -408,-301 -44,-6 -83,-14 -87,-17 -4,-4 -27,-54 -51,-112 -102,-243 -191,-438 -217,-475 -16,-22 -45,-56 -65,-75 -56,-53 -195,-209 -195,-218 0,-10 146,-75 770,-345 223,-97 475,-209 560,-251 85,-41 157,-71 158,-66 2,6 29,10 60,10 44,0 69,-7 112,-30 105,-58 255,-128 332,-155 81,-28 86,-28 179,8 25,10 25,12 16,66 -14,92 9,356 43,486 38,142 131,346 200,440 21,29 67,77 102,108 60,53 67,63 120,189 31,73 66,166 79,206 13,41 29,72 36,72 7,0 13,9 13,20 0,14 -7,20 -23,20 -13,0 -32,9 -42,20 -10,11 -24,20 -32,20 -9,0 -13,16 -13,59 0,51 3,62 22,75 12,9 30,16 40,16 14,0 18,8 18,33 0,31 4,35 83,72 45,22 142,85 216,140 74,55 155,112 180,126 25,14 118,68 206,119 88,51 194,112 235,136 78,46 111,57 274,95 l 99,23 77,73 c 75,71 79,77 105,161 17,55 113,260 260,557 241,484 292,594 319,686 9,30 36,106 60,169 24,63 69,180 99,260 31,80 75,179 98,220 67,120 109,192 134,234 23,38 24,66 2,66 -6,0 -68,-56 -137,-125 l -127,-125 h -56 -57 v 54 c 0,39 8,70 29,112 16,33 43,91 61,129 18,39 70,145 116,238 46,92 81,167 76,167 -4,0 -33,-24 -64,-52 z"
       id="path6"
       inkscape:connector-curvature="0" />
    <path
       d="m 3660,3903 -244,-94 -96,-94 c -52,-52 -109,-107 -126,-122 -26,-23 -84,-118 -84,-137 0,-3 17,-2 38,1 21,3 81,33 142,72 61,39 177,98 278,141 162,70 176,78 206,120 70,98 139,201 135,204 -2,1 -114,-40 -249,-91 z"
       id="path8"
       inkscape:connector-curvature="0" />
  </g>
</svg>
